# xmcd
#
# Track frame offsets: 
#        150
#        18057
#        35155
#        44625
#        63912
#        79140
#        95385
#        114965
#        124077
#        148980
#
# Disc length: 2179 seconds
#
# Revision: 24
# Processed by: cddbd v1.5.2PL0 Copyright (c) Steve Scherf et al.
# Submitted via: ExactAudioCopyFreeDBPlugin 1.0
#
DISCID=8508810a
DTITLE=Bill Withers - All Time Best
DYEAR=1998
DGENRE=Soul
TTITLE0=Just The Two Of Us
TTITLE1=Use Me
TTITLE2=Ain't No Sunshine
TTITLE3=Lovely Day
TTITLE4=I Want To Spend The Night
TTITLE5=Soul Shadows
TTITLE6=Lean On Me
TTITLE7=Grandma's Hands
TTITLE8=Hello Like Before
TTITLE9=Who Is He What Is He To You
EXTD=
EXTT0=
EXTT1=
EXTT2=
EXTT3=
EXTT4=
EXTT5=
EXTT6=
EXTT7=
EXTT8=
EXTT9=
PLAYORDER=
